<svg xmlns="http://www.w3.org/2000/svg" width="480" height="252" viewBox="0 0 480 252" role="img" aria-labelledby="title desc"><title id="title">FoodGate Sushi · PRIVADO</title><desc id="desc">Un menú digital para explorar. JavaScript · React · Vite</desc>
  <defs><radialGradient id="glow"><stop stop-color="#ff85bb" stop-opacity=".18"/><stop offset="1" stop-color="#ff85bb" stop-opacity="0"/></radialGradient></defs>
  <rect x="1" y="1" width="478" height="250" rx="19" fill="#111827" stroke="#30344c"/><circle cx="421" cy="54" r="130" fill="url(#glow)"/>
  <path d="M26 2H454" stroke="#ff85bb" stroke-width="3"/>
  <g font-family="Segoe UI,Arial,sans-serif"><text x="24" y="39" fill="#ff85bb" font-size="11" letter-spacing="1.8">FOOD / MOBILE FIRST</text>
  <g transform="translate(383 50)" fill="none" stroke="#ff85bb" stroke-width="2.4" stroke-linejoin="round" stroke-linecap="round"><ellipse cx="32" cy="32" rx="24" ry="16"/><ellipse cx="32" cy="32" rx="13" ry="8"/><path d="m45 6-9 17m20-13-12 17M8 32v10c0 21 48 21 48 0V32"/></g>
  <text x="24" y="96" fill="#f2f5ff" font-size="32" font-weight="750">FoodGate Sushi</text>
  <text x="24" y="132" fill="#acbad0" font-size="17">Un menú digital para explorar.</text><text x="24" y="164" fill="#ff85bb" font-size="13">JavaScript · React · Vite</text>
  <path d="M24 187H456" stroke="#2b354b"/><rect x="24" y="204" width="94" height="26" rx="13" fill="#ff85bb" fill-opacity=".12"/>
  <text x="71" y="221" text-anchor="middle" fill="#ff85bb" font-size="11" font-weight="700" letter-spacing="1">PRIVADO</text><text x="437" y="224" fill="#ff85bb" font-size="26">↗</text></g></svg>
